<?xml version="1.0" encoding="UTF-8"?>
<svg width="270px" height="30px" viewBox="0 0 270 30" version="1.1" xmlns="http://www.w3.org/2000/svg" xmlns:xlink="http://www.w3.org/1999/xlink">
    <title>colorhunt-icons</title>
    <g id="colorhunt-icons" stroke="none" stroke-width="1" fill="none" fill-rule="evenodd" stroke-linejoin="round">
        
        <g id="Facebook" stroke="#000000" >
            <g transform="translate(7.000000, 3.000000)">
                <path d="M17.525,9H14V7c0-1.032,0.084-1.682,1.563-1.682h1.868v-3.18C16.522,2.044,15.608,1.998,14.693,2 C11.98,2,10,3.657,10,6.699V9H7v4l3-0.001V22h4v-9.003l3.066-0.001L17.525,9z"></path>
            </g>
        </g>

        <g id="Twitter" transform="translate(33.000000, 3.000000)" fill="#000000" >
            <path d="M23.643 4.937c-.835.37-1.732.62-2.675.733.962-.576 1.7-1.49 2.048-2.578-.9.534-1.897.922-2.958 1.13-.85-.904-2.06-1.47-3.4-1.47-2.572 0-4.658 2.086-4.658 4.66 0 .364.042.718.12 1.06-3.873-.195-7.304-2.05-9.602-4.868-.4.69-.63 1.49-.63 2.342 0 1.616.823 3.043 2.072 3.878-.764-.025-1.482-.234-2.11-.583v.06c0 2.257 1.605 4.14 3.737 4.568-.392.106-.803.162-1.227.162-.3 0-.593-.028-.877-.082.593 1.85 2.313 3.198 4.352 3.234-1.595 1.25-3.604 1.995-5.786 1.995-.376 0-.747-.022-1.112-.065 2.062 1.323 4.51 2.093 7.14 2.093 8.57 0 13.255-7.098 13.255-13.254 0-.2-.005-.402-.014-.602.91-.658 1.7-1.477 2.323-2.41z"></path>
        </g>


        <g id="Reddit" transform="translate(63.000000, 3.000000)" fill="#000000" >
            <path d="M14.238 15.348c.085.084.085.221 0 .306-.465.462-1.194.687-2.231.687l-.008-.002-.008.002c-1.036 0-1.766-.225-2.231-.688-.085-.084-.085-.221 0-.305.084-.084.222-.084.307 0 .379.377 1.008.561 1.924.561l.008.002.008-.002c.915 0 1.544-.184 1.924-.561.085-.084.223-.084.307 0zm-3.44-2.418c0-.507-.414-.919-.922-.919-.509 0-.923.412-.923.919 0 .506.414.918.923.918.508.001.922-.411.922-.918zm13.202-.93c0 6.627-5.373 12-12 12s-12-5.373-12-12 5.373-12 12-12 12 5.373 12 12zm-5-.129c0-.851-.695-1.543-1.55-1.543-.417 0-.795.167-1.074.435-1.056-.695-2.485-1.137-4.066-1.194l.865-2.724 2.343.549-.003.034c0 .696.569 1.262 1.268 1.262.699 0 1.267-.566 1.267-1.262s-.568-1.262-1.267-1.262c-.537 0-.994.335-1.179.804l-2.525-.592c-.11-.027-.223.037-.257.145l-.965 3.038c-1.656.02-3.155.466-4.258 1.181-.277-.255-.644-.415-1.05-.415-.854.001-1.549.693-1.549 1.544 0 .566.311 1.056.768 1.325-.03.164-.05.331-.05.5 0 2.281 2.805 4.137 6.253 4.137s6.253-1.856 6.253-4.137c0-.16-.017-.317-.044-.472.486-.261.82-.766.82-1.353zm-4.872.141c-.509 0-.922.412-.922.919 0 .506.414.918.922.918s.922-.412.922-.918c0-.507-.413-.919-.922-.919z" />
        </g>

        <g id="Otros" transform="translate(90.000000, 0.000000)" stroke="#000000" stroke-linecap="round">
            <path d="M 23 5 C 20.800781 5 19 6.800781 19 9 C 19 9.777344 19.234375 10.5 19.625 11.117188 L 16.519531 15 L 11.855469 15 C 11.40625 13.285156 9.851563 12 8 12 C 5.800781 12 4 13.800781 4 16 C 4 18.199219 5.800781 20 8 20 C 9.851563 20 11.40625 18.714844 11.855469 17 L 16.519531 17 L 19.625 20.882813 C 19.234375 21.5 19 22.222656 19 23 C 19 25.199219 20.800781 27 23 27 C 25.199219 27 27 25.199219 27 23 C 27 20.800781 25.199219 19 23 19 C 22.304688 19 21.660156 19.195313 21.089844 19.511719 L 18.28125 16 L 21.089844 12.488281 C 21.660156 12.804688 22.304688 13 23 13 C 25.199219 13 27 11.199219 27 9 C 27 6.800781 25.199219 5 23 5 Z M 23 7 C 24.117188 7 25 7.882813 25 9 C 25 10.117188 24.117188 11 23 11 C 21.882813 11 21 10.117188 21 9 C 21 7.882813 21.882813 7 23 7 Z M 8 14 C 9.117188 14 10 14.882813 10 16 C 10 17.117188 9.117188 18 8 18 C 6.882813 18 6 17.117188 6 16 C 6 14.882813 6.882813 14 8 14 Z M 23 21 C 24.117188 21 25 21.882813 25 23 C 25 24.117188 24.117188 25 23 25 C 21.882813 25 21 24.117188 21 23 C 21 21.882813 21.882813 21 23 21 Z"></path>
        </g>

        <g id="Group" transform="translate(180.000000, 0.000000)" stroke="#000000" stroke-linecap="round">
            <g transform="translate(6.500000, 8.000000)">
                <path d="M16,8.5 L16,10.5 C16,11.6045695 15.1045695,12.5 14,12.5 L2,12.5 C0.8954305,12.5 1.3527075e-16,11.6045695 0,10.5 L0,8.5 L0,8.5" id="Path"/>
                <polyline id="Path" transform="translate(8.000000, 4.500000) rotate(-315.000000) translate(-8.000000, -4.500000) " points="10.5 2 10.5 7 5.5 7"/>
                <line x1="8" y1="7" x2="8" y2="0" id="Path-8"/>
            </g>
        </g>

        <g id="Combined-Shape" transform="translate(150.000000, 0.000000)" fill="#FFFFFF" stroke="#111111">
            <path d="M14.6066017,6.39339828 C16.3223305,4.67766953 19.1040764,4.67766953 20.8198052,6.39339828 C21.5790923,7.15268541 22.0023607,8.12074779 22.0896104,9.11280054 L22.1066017,9.10660172 L22.1066017,18.1066017 C22.1066017,19.2111712 21.2111712,20.1066017 20.1066017,20.1066017 L11.1066017,20.1066017 L11.1128005,20.0896104 C10.1207478,20.0023607 9.15268541,19.5790923 8.39339828,18.8198052 C6.67766953,17.1040764 6.67766953,14.3223305 8.39339828,12.6066017 C10.0126667,10.9873333 12.5814563,10.8962961 14.3074911,12.3334901 L14.3149351,12.3149351 L14.3334901,12.3074911 C12.8962961,10.5814563 12.9873333,8.01266671 14.6066017,6.39339828 Z" transform="translate(14.606602, 12.606602) rotate(-315.000000) translate(-14.606602, -12.606602) "/>
        </g>

        <g id="Group" transform="translate(120.000000, 0.000000)" stroke="#000000" stroke-linecap="round">
            <g transform="translate(10.000000, 10.000000)">
                <line x1="4.5" y1="0" x2="1.5" y2="10.2666667" id="Line-4"/>
                <line x1="9.5" y1="0" x2="6.5" y2="10.2666667" id="Line-4"/>
                <line x1="1.41666667" y1="3.13333333" x2="10.5833333" y2="3.13333333" id="Line"/>
                <line x1="0.416666667" y1="7.13333333" x2="9.58333333" y2="7.13333333" id="Line"/>
            </g>
        </g>

        <g id="Group" transform="translate(210.000000, 0.000000)" stroke="#000000" stroke-linecap="round">
            <g id="Path" transform="translate(14.757130, 15.535763) rotate(-315.000000) translate(-14.757130, -15.535763) translate(9.757130, 6.899400)">
                <path d="M7.27272727,12.7272727 C7.27272727,13.1313131 7.27272727,13.7373737 7.27272727,14.5454545 C7.27272727,16.0516857 6.05168568,17.2727273 4.54545455,17.2727273 L2.72727273,17.2727273 C1.22104159,17.2727273 9.09494702e-13,16.0516857 9.09494702e-13,14.5454545 L9.09494702e-13,9.09090909 C9.09494702e-13,7.58467796 1.22104159,6.36363636 2.72727273,6.36363636 L4.54545455,6.36363636 C6.05168568,6.36363636 7.27272727,7.58467796 7.27272727,9.09090909"/>
                <path d="M2.72727273,4.54545455 C2.72727273,4.14141414 2.72727273,3.53535354 2.72727273,2.72727273 C2.72727273,1.22104159 3.94831432,0 5.45454545,0 L7.27272727,0 C8.77895841,0 10,1.22104159 10,2.72727273 L10,8.18181818 C10,9.68804932 8.77895841,10.9090909 7.27272727,10.9090909 L5.45454545,10.9090909 C3.94831432,10.9090909 2.72727273,9.68804932 2.72727273,8.18181818"/>
            </g>
        </g>
        
        <g id="Group" transform="translate(240.000000, 0.000000)" stroke="#000000" stroke-linecap="round">
            <g transform="translate(4.000000, 7.000000)">
                <path d="M1.8973666,0.632455532 L16.8434199,5.61447329 C17.3673632,5.78912106 17.6505232,6.35544104 17.4758754,6.87938436 C17.3967579,7.11673702 17.2315419,7.31581005 17.012835,7.43731387 L10.8571429,10.8571429 L10.8571429,10.8571429 L7.43731387,17.012835 C7.16910068,17.4956188 6.56029739,17.6695626 6.07751366,17.4013494 C5.85880679,17.2798456 5.69359084,17.0807725 5.61447329,16.8434199 L0.632455532,1.8973666 C0.457807759,1.37342328 0.740967746,0.807103305 1.26491106,0.632455532 C1.47017787,0.564033263 1.69209979,0.564033263 1.8973666,0.632455532 Z" id="Rectangle" transform="translate(9.500000, 9.500000) rotate(-270.000000) translate(-9.500000, -9.500000) "/>
                <line x1="18" y1="1" x2="8.10050506" y2="10.8994949" id="Path-7"/>
            </g>
        </g>
    </g>
</svg>