<svg width="200" height="200" viewBox="0 0 200 200" fill="none" xmlns="http://www.w3.org/2000/svg">
<path d="M186 100.5C186 147.699 147.518 186 100 186C52.4825 186 14 147.699 14 100.5C14 53.3006 52.4825 15 100 15C147.518 15 186 53.3006 186 100.5Z" stroke="#00F8DF" stroke-width="8"/>
<path d="M98.6719 133H84.6094V103.75H57.1875V133H43.125V64.75H57.1875V92.4062H84.6094V64.75H98.6719V133ZM146.391 115.094C146.391 112.438 145.453 110.406 143.578 109C141.703 107.562 138.328 106.062 133.453 104.5C128.578 102.906 124.719 101.344 121.875 99.8125C114.125 95.625 110.25 89.9844 110.25 82.8906C110.25 79.2031 111.281 75.9219 113.344 73.0469C115.438 70.1406 118.422 67.875 122.297 66.25C126.203 64.625 130.578 63.8125 135.422 63.8125C140.297 63.8125 144.641 64.7031 148.453 66.4844C152.266 68.2344 155.219 70.7188 157.312 73.9375C159.438 77.1562 160.5 80.8125 160.5 84.9062H146.438C146.438 81.7812 145.453 79.3594 143.484 77.6406C141.516 75.8906 138.75 75.0156 135.188 75.0156C131.75 75.0156 129.078 75.75 127.172 77.2188C125.266 78.6562 124.312 80.5625 124.312 82.9375C124.312 85.1562 125.422 87.0156 127.641 88.5156C129.891 90.0156 133.188 91.4219 137.531 92.7344C145.531 95.1406 151.359 98.125 155.016 101.688C158.672 105.25 160.5 109.688 160.5 115C160.5 120.906 158.266 125.547 153.797 128.922C149.328 132.266 143.312 133.938 135.75 133.938C130.5 133.938 125.719 132.984 121.406 131.078C117.094 129.141 113.797 126.5 111.516 123.156C109.266 119.812 108.141 115.938 108.141 111.531H122.25C122.25 119.062 126.75 122.828 135.75 122.828C139.094 122.828 141.703 122.156 143.578 120.812C145.453 119.438 146.391 117.531 146.391 115.094Z" fill="#00F8DF"/>
</svg>
